# xmcd CD database file
#
# Track frame offsets:
#	150
#	25780
#	59755
#	85772
#	104440
#	120947
#	144725
#	170960
#	190025
#
# Disc length: 2865 seconds
#
# Revision: 0
# Processed by: cddbd v1.4PL0 Copyright (c) Steve Scherf et al.
# Submitted via: CDex 1.50Beta5
#
DISCID=7a0b2f09
DTITLE=Human Factor - Forbidden City
DYEAR=1989
DGENRE=Jazz
TTITLE0=Rainy Days
TTITLE1=Belfast Area
TTITLE2=Jade Green
TTITLE3=Tribute to S.M.
TTITLE4=Abate Fetel
TTITLE5=Forbidden City
TTITLE6=Canadian 4
TTITLE7=Taabo Taabo
TTITLE8=Fog In The Highlands
EXTD=YEAR: 1989
EXTT0=
EXTT1=
EXTT2=
EXTT3=
EXTT4=
EXTT5=
EXTT6=
EXTT7=
EXTT8=
PLAYORDER=
